<?xml version="1.0" encoding="utf-8" ?>
<svg baseProfile="full" height="275.0" version="1.1" viewBox="0 0 313.0 275.0" width="313.0" xmlns="http://www.w3.org/2000/svg" xmlns:ev="http://www.w3.org/2001/xml-events" xmlns:xlink="http://www.w3.org/1999/xlink"><defs /><desc>Modelica.Mechanics.Rotational.Components.LossyGear</desc><rect fill="url(#30bc70ef-a27a-4a4a-9da0-1ba91b5443b1)" height="80.0" rx="0.0" ry="0.0" stroke="rgb(0,0,0)" stroke-width="0.25mm" width="30.0" x="103.0" y="50.0" /><defs><linearGradient id="30bc70ef-a27a-4a4a-9da0-1ba91b5443b1" x1="0%" x2="0%" y1="0%" y2="100%"><stop offset="0" stop-color="rgb(0, 0, 0)" stop-opacity="1" /><stop offset="0.3" stop-color="rgb(255, 255, 255)" stop-opacity="1" /><stop offset="0.7" stop-color="rgb(255, 255, 255)" stop-opacity="1" /><stop offset="1" stop-color="rgb(0, 0, 0)" stop-opacity="1" /></linearGradient></defs><rect fill="url(#51447e88-7843-49ba-9755-18bc50138e12)" height="42.0" rx="0.0" ry="0.0" stroke="rgb(0,0,0)" stroke-width="0.25mm" width="30.0" x="103.0" y="129.0" /><defs><linearGradient id="51447e88-7843-49ba-9755-18bc50138e12" x1="0%" x2="0%" y1="0%" y2="100%"><stop offset="0" stop-color="rgb(0, 0, 0)" stop-opacity="1" /><stop offset="0.3" stop-color="rgb(255, 255, 255)" stop-opacity="1" /><stop offset="0.7" stop-color="rgb(255, 255, 255)" stop-opacity="1" /><stop offset="1" stop-color="rgb(0, 0, 0)" stop-opacity="1" /></linearGradient></defs><polyline fill="none" fill-opacity="0" points="73.0,130.0 93.0,130.0" stroke="rgb(0,0,0)" stroke-width="0.25mm" /><defs /><polyline fill="none" fill-opacity="0" points="73.0,170.0 93.0,170.0" stroke="rgb(0,0,0)" stroke-width="0.25mm" /><defs /><polyline fill="none" fill-opacity="0" points="83.0,170.0 83.0,236.0" stroke="rgb(0,0,0)" stroke-width="0.25mm" /><defs /><polyline fill="none" fill-opacity="0" points="153.0,110.0 153.0,236.0" stroke="rgb(0,0,0)" stroke-width="0.25mm" /><defs /><polyline fill="none" fill-opacity="0" points="143.0,110.0 163.0,110.0" stroke="rgb(0,0,0)" stroke-width="0.25mm" /><defs /><polyline fill="none" fill-opacity="0" points="143.0,70.0 163.0,70.0" stroke="rgb(0,0,0)" stroke-width="0.25mm" /><defs /><polyline fill="none" fill-opacity="0" points="213.0,170.0 233.0,170.0" stroke="rgb(0,0,0)" stroke-width="0.25mm" /><defs /><polyline fill="none" fill-opacity="0" points="213.0,130.0 233.0,130.0" stroke="rgb(0,0,0)" stroke-width="0.25mm" /><defs /><polyline fill="none" fill-opacity="0" points="223.0,170.0 223.0,236.0" stroke="rgb(0,0,0)" stroke-width="0.25mm" /><defs /><polyline fill="none" fill-opacity="0" points="223.0,236.0 83.0,236.0" stroke="rgb(0,0,0)" stroke-width="0.25mm" /><defs /><rect fill="url(#a449ad70-acec-4c8b-abd1-a4957a2d29eb)" height="20.0" rx="0.0" ry="0.0" stroke="rgb(64,64,64)" stroke-width="0.25mm" width="50.0" x="53.0" y="140.0" /><defs><linearGradient id="a449ad70-acec-4c8b-abd1-a4957a2d29eb" x1="0%" x2="0%" y1="0%" y2="100%"><stop offset="0" stop-color="rgb(64, 64, 64)" stop-opacity="1" /><stop offset="0.3" stop-color="rgb(191, 191, 191)" stop-opacity="1" /><stop offset="0.7" stop-color="rgb(191, 191, 191)" stop-opacity="1" /><stop offset="1" stop-color="rgb(64, 64, 64)" stop-opacity="1" /></linearGradient></defs><rect fill="url(#9bf3cf0d-5a54-48c0-bdfe-ee37c3661fc7)" height="20.0" rx="0.0" ry="0.0" stroke="rgb(64,64,64)" stroke-width="0.25mm" width="50.0" x="203.0" y="140.0" /><defs><linearGradient id="9bf3cf0d-5a54-48c0-bdfe-ee37c3661fc7" x1="0%" x2="0%" y1="0%" y2="100%"><stop offset="0" stop-color="rgb(64, 64, 64)" stop-opacity="1" /><stop offset="0.3" stop-color="rgb(191, 191, 191)" stop-opacity="1" /><stop offset="0.7" stop-color="rgb(191, 191, 191)" stop-opacity="1" /><stop offset="1" stop-color="rgb(64, 64, 64)" stop-opacity="1" /></linearGradient></defs><rect fill="rgb(153,153,153)" fill-opacity="1" height="4.0" rx="0.0" ry="0.0" stroke="rgb(0,0,0)" stroke-width="0.25mm" width="30.0" x="103.0" y="167.0" /><defs /><rect fill="rgb(204,204,204)" fill-opacity="1" height="6.0" rx="0.0" ry="0.0" stroke="rgb(0,0,0)" stroke-width="0.25mm" width="30.0" x="103.0" y="155.0" /><defs /><rect fill="rgb(204,204,204)" fill-opacity="1" height="4.0" rx="0.0" ry="0.0" stroke="rgb(0,0,0)" stroke-width="0.25mm" width="30.0" x="103.0" y="129.0" /><defs /><rect fill="rgb(255,255,255)" fill-opacity="1" height="6.0" rx="0.0" ry="0.0" stroke="rgb(0,0,0)" stroke-width="0.25mm" width="30.0" x="103.0" y="139.0" /><defs /><rect fill="url(#e9109c7a-dad5-4332-a3f8-7a0410cc7887)" height="20.0" rx="0.0" ry="0.0" stroke="rgb(64,64,64)" stroke-width="0.25mm" width="40.0" x="133.0" y="80.0" /><defs><linearGradient id="e9109c7a-dad5-4332-a3f8-7a0410cc7887" x1="0%" x2="0%" y1="0%" y2="100%"><stop offset="0" stop-color="rgb(64, 64, 64)" stop-opacity="1" /><stop offset="0.3" stop-color="rgb(191, 191, 191)" stop-opacity="1" /><stop offset="0.7" stop-color="rgb(191, 191, 191)" stop-opacity="1" /><stop offset="1" stop-color="rgb(64, 64, 64)" stop-opacity="1" /></linearGradient></defs><rect fill="rgb(153,153,153)" fill-opacity="1" height="4.0" rx="0.0" ry="0.0" stroke="rgb(0,0,0)" stroke-width="0.25mm" width="30.0" x="103.0" y="50.0" /><defs /><rect fill="rgb(204,204,204)" fill-opacity="1" height="6.0" rx="0.0" ry="0.0" stroke="rgb(0,0,0)" stroke-width="0.25mm" width="30.0" x="103.0" y="60.0" /><defs /><rect fill="rgb(204,204,204)" fill-opacity="1" height="8.0" rx="0.0" ry="0.0" stroke="rgb(0,0,0)" stroke-width="0.25mm" width="30.0" x="103.0" y="96.0" /><defs /><rect fill="rgb(102,102,102)" fill-opacity="1" height="4.0" rx="0.0" ry="0.0" stroke="rgb(0,0,0)" stroke-width="0.25mm" width="30.0" x="103.0" y="126.0" /><defs /><rect fill="rgb(153,153,153)" fill-opacity="1" height="6.0" rx="0.0" ry="0.0" stroke="rgb(0,0,0)" stroke-width="0.25mm" width="30.0" x="103.0" y="114.0" /><defs /><rect fill="rgb(255,255,255)" fill-opacity="1" height="8.0" rx="0.0" ry="0.0" stroke="rgb(0,0,0)" stroke-width="0.25mm" width="30.0" x="103.0" y="76.0" /><defs /><rect fill="url(#6ca6ebd6-3f23-4676-8ef3-af2054005b18)" height="42.0" rx="0.0" ry="0.0" stroke="rgb(0,0,0)" stroke-width="0.25mm" width="30.0" x="173.0" y="69.0" /><defs><linearGradient id="6ca6ebd6-3f23-4676-8ef3-af2054005b18" x1="0%" x2="0%" y1="0%" y2="100%"><stop offset="0" stop-color="rgb(0, 0, 0)" stop-opacity="1" /><stop offset="0.3" stop-color="rgb(255, 255, 255)" stop-opacity="1" /><stop offset="0.7" stop-color="rgb(255, 255, 255)" stop-opacity="1" /><stop offset="1" stop-color="rgb(0, 0, 0)" stop-opacity="1" /></linearGradient></defs><rect fill="rgb(153,153,153)" fill-opacity="1" height="4.0" rx="0.0" ry="0.0" stroke="rgb(0,0,0)" stroke-width="0.25mm" width="30.0" x="173.0" y="107.0" /><defs /><rect fill="rgb(204,204,204)" fill-opacity="1" height="6.0" rx="0.0" ry="0.0" stroke="rgb(0,0,0)" stroke-width="0.25mm" width="30.0" x="173.0" y="95.0" /><defs /><rect fill="rgb(204,204,204)" fill-opacity="1" height="4.0" rx="0.0" ry="0.0" stroke="rgb(0,0,0)" stroke-width="0.25mm" width="30.0" x="173.0" y="69.0" /><defs /><rect fill="rgb(255,255,255)" fill-opacity="1" height="6.0" rx="0.0" ry="0.0" stroke="rgb(0,0,0)" stroke-width="0.25mm" width="30.0" x="173.0" y="79.0" /><defs /><rect fill="url(#b28f2e83-ac50-4f0f-9f86-c65787c7df8b)" height="80.0" rx="0.0" ry="0.0" stroke="rgb(0,0,0)" stroke-width="0.25mm" width="30.0" x="173.0" y="110.0" /><defs><linearGradient id="b28f2e83-ac50-4f0f-9f86-c65787c7df8b" x1="0%" x2="0%" y1="0%" y2="100%"><stop offset="0" stop-color="rgb(0, 0, 0)" stop-opacity="1" /><stop offset="0.3" stop-color="rgb(255, 255, 255)" stop-opacity="1" /><stop offset="0.7" stop-color="rgb(255, 255, 255)" stop-opacity="1" /><stop offset="1" stop-color="rgb(0, 0, 0)" stop-opacity="1" /></linearGradient></defs><rect fill="rgb(153,153,153)" fill-opacity="1" height="4.0" rx="0.0" ry="0.0" stroke="rgb(0,0,0)" stroke-width="0.25mm" width="30.0" x="173.0" y="110.0" /><defs /><rect fill="rgb(204,204,204)" fill-opacity="1" height="6.0" rx="0.0" ry="0.0" stroke="rgb(0,0,0)" stroke-width="0.25mm" width="30.0" x="173.0" y="120.0" /><defs /><rect fill="rgb(204,204,204)" fill-opacity="1" height="8.0" rx="0.0" ry="0.0" stroke="rgb(0,0,0)" stroke-width="0.25mm" width="30.0" x="173.0" y="156.0" /><defs /><rect fill="rgb(102,102,102)" fill-opacity="1" height="4.0" rx="0.0" ry="0.0" stroke="rgb(0,0,0)" stroke-width="0.25mm" width="30.0" x="173.0" y="186.0" /><defs /><rect fill="rgb(153,153,153)" fill-opacity="1" height="6.0" rx="0.0" ry="0.0" stroke="rgb(0,0,0)" stroke-width="0.25mm" width="30.0" x="173.0" y="174.0" /><defs /><rect fill="rgb(255,255,255)" fill-opacity="1" height="8.0" rx="0.0" ry="0.0" stroke="rgb(0,0,0)" stroke-width="0.25mm" width="30.0" x="173.0" y="136.0" /><defs /><rect fill="none" fill-opacity="0" height="121.0" rx="0.0" ry="0.0" stroke="rgb(0,0,0)" stroke-width="0.25mm" width="30.0" x="103.0" y="50.0" /><defs /><rect fill="none" fill-opacity="0" height="121.0" rx="0.0" ry="0.0" stroke="rgb(0,0,0)" stroke-width="0.25mm" width="30.0" x="173.0" y="69.0" /><defs /><polyline fill="none" fill-opacity="0" points="103.0,270.0 123.0,250.0" stroke="rgb(0,0,0)" stroke-width="0.25mm" /><defs /><polyline fill="none" fill-opacity="0" points="123.0,270.0 143.0,250.0" stroke="rgb(0,0,0)" stroke-width="0.25mm" /><defs /><polyline fill="none" fill-opacity="0" points="143.0,270.0 163.0,250.0" stroke="rgb(0,0,0)" stroke-width="0.25mm" /><defs /><polyline fill="none" fill-opacity="0" points="163.0,270.0 183.0,250.0" stroke="rgb(0,0,0)" stroke-width="0.25mm" /><defs /><polyline fill="none" fill-opacity="0" points="123.0,250.0 183.0,250.0" stroke="rgb(0,0,0)" stroke-width="0.25mm" /><defs /><polygon fill="rgb(161,35,41)" fill-opacity="1" points="44.0,110.0 73.0,110.0 73.0,70.0 63.0,70.0 83.0,50.0 103.0,70.0 93.0,70.0 93.0,130.0 44.0,130.0 44.0,110.0" /><defs /><polyline fill="none" fill-opacity="0" points="73.0,130.0 93.0,130.0" stroke="rgb(0,0,0)" stroke-width="0.25mm" /><defs /><text alignment-baseline="middle" fill="rgb(0,0,255)" font-family="Verdana" font-size="18" text-anchor="middle" x="155.0" y="25.0">LossyGear<tspan class="bbox" display="none">5.0 5.0 305.0 45.0</tspan><tspan class="data-bind" display="none">%name</tspan></text><defs /><text alignment-baseline="middle" fill="rgb(0,0,0)" font-family="Verdana" font-size="18" text-anchor="middle" x="158.0" y="214.0">ratio=ratio<tspan class="bbox" display="none">8.0 199.0 308.0 229.0</tspan><tspan class="data-bind" display="none">ratio=%ratio</tspan></text><defs /><polyline fill="none" fill-opacity="0" points="53.0,250.0 53.0,180.0 153.0,180.0 153.0,150.0" stroke="rgb(191,0,0)" stroke-dasharray="1.0 2.0" stroke-width="0.25mm" /><defs /><g id="flange_a"><ellipse cx="53.0" cy="150.0" fill="rgb(95,95,95)" fill-opacity="1" rx="10.0" ry="10.0" stroke="rgb(0,0,0)" stroke-width="0.25mm" /><defs /><g display="none" id="info"><text id="name">flange_a</text><text id="type">Modelica.Mechanics.Rotational.Interfaces.Flange_a</text><text id="classDesc">1-dim. rotational flange of a shaft (filled square icon)</text><text id="desc">Flange of left shaft</text></g></g><g id="flange_b"><ellipse cx="253.198019802" cy="150.0" fill="rgb(255,255,255)" fill-opacity="1" rx="9.90099009901" ry="10.0" stroke="rgb(0,0,0)" stroke-width="0.25mm" /><defs /><g display="none" id="info"><text id="name">flange_b</text><text id="type">Modelica.Mechanics.Rotational.Interfaces.Flange_b</text><text id="classDesc">1-dim. rotational flange of a shaft (non-filled square icon)</text><text id="desc">Flange of right shaft</text></g></g><g id="support"><ellipse cx="153.0" cy="250.0" fill="rgb(95,95,95)" fill-opacity="1" rx="6.66666666667" ry="6.66666666667" stroke="rgb(0,0,0)" stroke-width="0.25mm" /><defs /><rect fill="rgb(192,192,192)" fill-opacity="1" height="20.0" rx="0.0" ry="0.0" stroke="rgb(192,192,192)" stroke-width="0.25mm" width="20.0" x="143.0" y="240.0" /><defs /><ellipse cx="153.0" cy="250.0" fill="rgb(95,95,95)" fill-opacity="1" rx="6.66666666667" ry="6.66666666667" stroke="rgb(0,0,0)" stroke-width="0.25mm" /><defs /><g display="none" id="info"><text id="name">support</text><text id="type">Modelica.Mechanics.Rotational.Interfaces.Support</text><text id="classDesc">Support/housing of a 1-dim. rotational shaft</text><text id="desc">Support/housing of component</text></g></g><g id="heatPort"><rect fill="rgb(191,0,0)" fill-opacity="1" height="20.0" rx="0.0" ry="0.0" stroke="rgb(191,0,0)" stroke-width="0.25mm" width="20.0" x="43.0" y="240.0" /><defs /><g display="none" id="info"><text id="name">heatPort</text><text id="type">Modelica.Thermal.HeatTransfer.Interfaces.HeatPort_a</text><text id="classDesc">Thermal port for 1-dim. heat transfer (filled rectangular icon)</text><text id="desc">Optional port to which dissipated losses are transported in form of heat</text></g></g></svg>