<?xml version="1.0" encoding="utf-8" ?>
<svg baseProfile="full" height="223.0" version="1.1" viewBox="0 0 310.0 223.0" width="310.0" xmlns="http://www.w3.org/2000/svg" xmlns:ev="http://www.w3.org/2001/xml-events" xmlns:xlink="http://www.w3.org/1999/xlink"><defs /><desc>Modelica.Electrical.Analog.Basic.Transformer</desc><path d="M 126.0 168.0 C 128.5 168.0 131.0 168.0 134.5 164.5 134.5 164.5 138.0 161.0 138.0 158.5 138.0 158.5 138.0 156.0 138.0 153.5 138.0 153.5 138.0 151.0 134.5 147.0 134.5 147.0 131.0 143.0 128.5 143.0 128.5 143.0 126.0 143.0 126.0 143.0" fill="none" fill-opacity="0" stroke="rgb(0,0,255)" stroke-width="0.25mm" /><defs /><path d="M 126.0 143.0 C 128.5 143.0 131.0 143.0 134.5 139.5 134.5 139.5 138.0 136.0 138.0 133.5 138.0 133.5 138.0 131.0 138.0 128.5 138.0 128.5 138.0 126.0 134.5 122.0 134.5 122.0 131.0 118.0 128.5 118.0 128.5 118.0 126.0 118.0 126.0 118.0" fill="none" fill-opacity="0" stroke="rgb(0,0,255)" stroke-width="0.25mm" /><defs /><path d="M 126.0 118.0 C 128.5 118.0 131.0 118.0 134.5 114.0 134.5 114.0 138.0 110.0 138.0 107.5 138.0 107.5 138.0 105.0 138.0 102.5 138.0 102.5 138.0 100.0 134.5 96.5 134.5 96.5 131.0 93.0 128.5 93.0 128.5 93.0 126.0 93.0 126.0 93.0" fill="none" fill-opacity="0" stroke="rgb(0,0,255)" stroke-width="0.25mm" /><defs /><path d="M 126.0 93.0 C 128.5 93.0 131.0 93.0 134.5 89.0 134.5 89.0 138.0 85.0 138.0 82.5 138.0 82.5 138.0 80.0 138.0 77.5 138.0 77.5 138.0 75.0 134.5 71.5 134.5 71.5 131.0 68.0 128.5 68.0 128.5 68.0 126.0 68.0 126.0 68.0" fill="none" fill-opacity="0" stroke="rgb(0,0,255)" stroke-width="0.25mm" /><defs /><polyline fill="none" fill-opacity="0" points="68.0,68.0 126.0,68.0" stroke="rgb(0,0,255)" stroke-width="0.25mm" /><defs /><polyline fill="none" fill-opacity="0" points="68.0,168.0 126.0,168.0" stroke="rgb(0,0,255)" stroke-width="0.25mm" /><defs /><path d="M 190.0 168.0 C 187.5 168.0 185.0 168.0 181.5 164.5 181.5 164.5 178.0 161.0 178.0 158.5 178.0 158.5 178.0 156.0 178.0 153.5 178.0 153.5 178.0 151.0 181.5 147.0 181.5 147.0 185.0 143.0 187.5 143.0 187.5 143.0 190.0 143.0 190.0 143.0" fill="none" fill-opacity="0" stroke="rgb(0,0,255)" stroke-width="0.25mm" /><defs /><path d="M 190.0 143.0 C 187.5 143.0 185.0 143.0 181.5 139.5 181.5 139.5 178.0 136.0 178.0 133.5 178.0 133.5 178.0 131.0 178.0 128.5 178.0 128.5 178.0 126.0 181.5 122.0 181.5 122.0 185.0 118.0 187.5 118.0 187.5 118.0 190.0 118.0 190.0 118.0" fill="none" fill-opacity="0" stroke="rgb(0,0,255)" stroke-width="0.25mm" /><defs /><path d="M 190.0 118.0 C 187.5 118.0 185.0 118.0 181.5 114.0 181.5 114.0 178.0 110.0 178.0 107.5 178.0 107.5 178.0 105.0 178.0 102.5 178.0 102.5 178.0 100.0 181.5 96.5 181.5 96.5 185.0 93.0 187.5 93.0 187.5 93.0 190.0 93.0 190.0 93.0" fill="none" fill-opacity="0" stroke="rgb(0,0,255)" stroke-width="0.25mm" /><defs /><path d="M 190.0 93.0 C 187.5 93.0 185.0 93.0 181.5 89.0 181.5 89.0 178.0 85.0 178.0 82.5 178.0 82.5 178.0 80.0 178.0 77.5 178.0 77.5 178.0 75.0 181.5 71.5 181.5 71.5 185.0 68.0 187.5 68.0 187.5 68.0 190.0 68.0 190.0 68.0" fill="none" fill-opacity="0" stroke="rgb(0,0,255)" stroke-width="0.25mm" /><defs /><polyline fill="none" fill-opacity="0" points="190.0,68.0 248.0,68.0" stroke="rgb(0,0,255)" stroke-width="0.25mm" /><defs /><polyline fill="none" fill-opacity="0" points="190.0,168.0 248.0,168.0" stroke="rgb(0,0,255)" stroke-width="0.25mm" /><defs /><text alignment-baseline="middle" fill="rgb(0,0,0)" font-family="Verdana" font-size="18" text-anchor="middle" x="76.5" y="115.0">L1</text><defs /><text alignment-baseline="middle" fill="rgb(0,0,0)" font-family="Verdana" font-size="18" text-anchor="middle" x="242.5" y="115.0">L2</text><defs /><text alignment-baseline="middle" fill="rgb(0,0,0)" font-family="Verdana" font-size="18" text-anchor="middle" x="161.0" y="202.0">M</text><defs /><text alignment-baseline="middle" fill="rgb(0,0,255)" font-family="Verdana" font-size="18" text-anchor="middle" x="155.0" y="25.0">Transformer<tspan class="bbox" display="none">5.0 5.0 305.0 45.0</tspan><tspan class="data-bind" display="none">%name</tspan></text><defs /><g id="p1"><rect fill="rgb(0,0,255)" fill-opacity="1" height="20.0" rx="0.0" ry="0.0" stroke="rgb(0,0,255)" stroke-width="0.25mm" width="20.0" x="48.0" y="58.0" /><defs /><g display="none" id="info"><text id="name">p1</text><text id="type">Modelica.Electrical.Analog.Interfaces.PositivePin</text><text id="classDesc">Positive pin of an electric component</text><text id="desc">Positive pin of the left port (potential p1.v &gt; n1.v for positive voltage drop v1)</text></g></g><g id="n1"><rect fill="rgb(255,255,255)" fill-opacity="1" height="20.0" rx="0.0" ry="0.0" stroke="rgb(0,0,255)" stroke-width="0.25mm" width="20.0" x="48.0" y="158.0" /><defs /><g display="none" id="info"><text id="name">n1</text><text id="type">Modelica.Electrical.Analog.Interfaces.NegativePin</text><text id="classDesc">Negative pin of an electric component</text><text id="desc">Negative pin of the left port</text></g></g><g id="p2"><rect fill="rgb(0,0,255)" fill-opacity="1" height="20.0" rx="0.0" ry="0.0" stroke="rgb(0,0,255)" stroke-width="0.25mm" width="20.0" x="248.0" y="58.0" /><defs /><g display="none" id="info"><text id="name">p2</text><text id="type">Modelica.Electrical.Analog.Interfaces.PositivePin</text><text id="classDesc">Positive pin of an electric component</text><text id="desc">Positive pin of the right port (potential p2.v &gt; n2.v for positive voltage drop v2)</text></g></g><g id="n2"><rect fill="rgb(255,255,255)" fill-opacity="1" height="20.0" rx="0.0" ry="0.0" stroke="rgb(0,0,255)" stroke-width="0.25mm" width="20.0" x="248.0" y="158.0" /><defs /><g display="none" id="info"><text id="name">n2</text><text id="type">Modelica.Electrical.Analog.Interfaces.NegativePin</text><text id="classDesc">Negative pin of an electric component</text><text id="desc">Negative pin of the right port</text></g></g></svg>