<?xml version="1.0" encoding="utf-8" ?>
<svg baseProfile="full" height="270.0" version="1.1" viewBox="0 0 310.0 270.0" width="310.0" xmlns="http://www.w3.org/2000/svg" xmlns:ev="http://www.w3.org/2001/xml-events" xmlns:xlink="http://www.w3.org/1999/xlink"><defs /><desc>Modelica.Mechanics.Translational.Sources.SignForce</desc><rect fill="rgb(255,255,255)" fill-opacity="1" height="192.0" rx="0.0" ry="0.0" stroke="rgb(255,255,255)" stroke-width="0.25mm" width="192.0" x="59.0" y="49.0" /><defs /><polyline fill="none" fill-opacity="0" points="155.0,205.0 155.0,245.0" stroke="rgb(0,0,0)" stroke-width="0.25mm" /><defs /><text alignment-baseline="middle" fill="rgb(0,0,255)" font-family="Verdana" font-size="18" text-anchor="middle" x="155.0" y="25.0">SignForce<tspan class="bbox" display="none">5.0 5.0 305.0 45.0</tspan><tspan class="data-bind" display="none">%name</tspan></text><defs /><polyline fill="none" fill-opacity="0" points="77.0,65.0 206.0,65.0" stroke="rgb(0,0,0)" stroke-width="0.25mm" /><defs /><polygon fill="rgb(128,128,128)" fill-opacity="1" points="236.0,65.0 206.0,55.0 206.0,75.0 236.0,65.0" stroke="rgb(0,0,0)" stroke-width="0.25mm" /><defs /><polyline fill="none" fill-opacity="0" points="103.0,205.0 232.0,205.0" stroke="rgb(0,0,0)" stroke-width="0.25mm" /><defs /><polygon fill="rgb(128,128,128)" fill-opacity="1" points="73.0,205.0 104.0,195.0 104.0,215.0 73.0,205.0" stroke="rgb(0,0,0)" stroke-width="0.25mm" /><defs /><polyline fill="none" fill-opacity="0" points="105.0,265.0 125.0,245.0" stroke="rgb(0,0,0)" stroke-width="0.25mm" /><defs /><polyline fill="none" fill-opacity="0" points="125.0,265.0 145.0,245.0" stroke="rgb(0,0,0)" stroke-width="0.25mm" /><defs /><polyline fill="none" fill-opacity="0" points="145.0,265.0 165.0,245.0" stroke="rgb(0,0,0)" stroke-width="0.25mm" /><defs /><polyline fill="none" fill-opacity="0" points="165.0,265.0 185.0,245.0" stroke="rgb(0,0,0)" stroke-width="0.25mm" /><defs /><polyline fill="none" fill-opacity="0" points="125.0,245.0 185.0,245.0" stroke="rgb(0,0,0)" stroke-width="0.25mm" /><defs /><polyline fill="none" fill-opacity="0" points="105.0,265.0 125.0,245.0" stroke="rgb(0,0,0)" stroke-width="0.25mm" /><defs /><polyline fill="none" fill-opacity="0" points="125.0,265.0 145.0,245.0" stroke="rgb(0,0,0)" stroke-width="0.25mm" /><defs /><polyline fill="none" fill-opacity="0" points="145.0,265.0 165.0,245.0" stroke="rgb(0,0,0)" stroke-width="0.25mm" /><defs /><polyline fill="none" fill-opacity="0" points="165.0,265.0 185.0,245.0" stroke="rgb(0,0,0)" stroke-width="0.25mm" /><defs /><polyline fill="none" fill-opacity="0" points="125.0,245.0 185.0,245.0" stroke="rgb(0,0,0)" stroke-width="0.25mm" /><defs /><polyline fill="none" fill-opacity="0" points="55.0,145.0 255.0,145.0" stroke="rgb(0,0,127)" stroke-width="0.25mm" /><defs /><polyline fill="none" fill-opacity="0" points="75.0,185.0 149.0,185.0 151.0,183.0 159.0,107.0 161.0,105.0 235.0,105.0" stroke="rgb(0,0,0)" stroke-width="0.25mm" /><defs /><g id="flange"><rect fill="rgb(255,255,255)" fill-opacity="1" height="20.0" rx="0.0" ry="0.0" stroke="rgb(0,127,0)" stroke-width="0.25mm" width="20.0" x="245.0" y="135.0" /><defs /><g display="none" id="info"><text id="name">flange</text><text id="type">Modelica.Mechanics.Translational.Interfaces.Flange_b</text><text id="classDesc">(right) 1D translational flange (flange axis directed OUT OF cut plane)</text><text id="desc">Flange of component</text></g></g><g id="support"><rect fill="rgb(175,175,175)" fill-opacity="1" height="12.0" rx="0.0" ry="0.0" stroke="rgb(0,127,0)" stroke-width="0.25mm" width="12.0" x="149.0" y="239.0" /><defs /><rect fill="rgb(175,175,175)" fill-opacity="1" height="20.0" rx="0.0" ry="0.0" width="20.0" x="145.0" y="235.0" /><defs /><rect fill="rgb(0,127,0)" fill-opacity="1" height="12.0" rx="0.0" ry="0.0" stroke="rgb(0,127,0)" stroke-width="0.25mm" width="12.0" x="149.0" y="239.0" /><defs /><g display="none" id="info"><text id="name">support</text><text id="type">Modelica.Mechanics.Translational.Interfaces.Support</text><text id="classDesc">Support/housing 1D translational flange</text><text id="desc">Support/housing of component</text></g></g></svg>