<?xml version="1.0" encoding="utf-8" ?>
<svg baseProfile="full" height="275.0" version="1.1" viewBox="0 0 317.0 275.0" width="317.0" xmlns="http://www.w3.org/2000/svg" xmlns:ev="http://www.w3.org/2001/xml-events" xmlns:xlink="http://www.w3.org/1999/xlink"><defs /><desc>Modelica.Mechanics.Rotational.Components.IdealGear</desc><rect fill="url(#a22af128-eb4d-4881-9efa-1a704dc11286)" height="80.0" rx="0.0" ry="0.0" stroke="rgb(0,0,0)" stroke-width="0.25mm" width="30.0" x="108.0" y="50.0" /><defs><linearGradient id="a22af128-eb4d-4881-9efa-1a704dc11286" x1="0%" x2="0%" y1="0%" y2="100%"><stop offset="0" stop-color="rgb(0, 0, 0)" stop-opacity="1" /><stop offset="0.3" stop-color="rgb(255, 255, 255)" stop-opacity="1" /><stop offset="0.7" stop-color="rgb(255, 255, 255)" stop-opacity="1" /><stop offset="1" stop-color="rgb(0, 0, 0)" stop-opacity="1" /></linearGradient></defs><rect fill="url(#8e9dba5a-a196-414e-a4bf-41abe5f15423)" height="42.0" rx="0.0" ry="0.0" stroke="rgb(0,0,0)" stroke-width="0.25mm" width="30.0" x="108.0" y="129.0" /><defs><linearGradient id="8e9dba5a-a196-414e-a4bf-41abe5f15423" x1="0%" x2="0%" y1="0%" y2="100%"><stop offset="0" stop-color="rgb(0, 0, 0)" stop-opacity="1" /><stop offset="0.3" stop-color="rgb(255, 255, 255)" stop-opacity="1" /><stop offset="0.7" stop-color="rgb(255, 255, 255)" stop-opacity="1" /><stop offset="1" stop-color="rgb(0, 0, 0)" stop-opacity="1" /></linearGradient></defs><polyline fill="none" fill-opacity="0" points="78.0,130.0 98.0,130.0" stroke="rgb(0,0,0)" stroke-width="0.25mm" /><defs /><polyline fill="none" fill-opacity="0" points="78.0,170.0 98.0,170.0" stroke="rgb(0,0,0)" stroke-width="0.25mm" /><defs /><polyline fill="none" fill-opacity="0" points="88.0,170.0 88.0,236.0" stroke="rgb(0,0,0)" stroke-width="0.25mm" /><defs /><polyline fill="none" fill-opacity="0" points="158.0,110.0 158.0,236.0" stroke="rgb(0,0,0)" stroke-width="0.25mm" /><defs /><polyline fill="none" fill-opacity="0" points="148.0,110.0 168.0,110.0" stroke="rgb(0,0,0)" stroke-width="0.25mm" /><defs /><polyline fill="none" fill-opacity="0" points="148.0,70.0 168.0,70.0" stroke="rgb(0,0,0)" stroke-width="0.25mm" /><defs /><polyline fill="none" fill-opacity="0" points="218.0,170.0 238.0,170.0" stroke="rgb(0,0,0)" stroke-width="0.25mm" /><defs /><polyline fill="none" fill-opacity="0" points="218.0,130.0 238.0,130.0" stroke="rgb(0,0,0)" stroke-width="0.25mm" /><defs /><polyline fill="none" fill-opacity="0" points="228.0,170.0 228.0,236.0" stroke="rgb(0,0,0)" stroke-width="0.25mm" /><defs /><polyline fill="none" fill-opacity="0" points="228.0,236.0 88.0,236.0" stroke="rgb(0,0,0)" stroke-width="0.25mm" /><defs /><rect fill="url(#ffe85abd-b32a-47dc-a27a-08eab78d736d)" height="20.0" rx="0.0" ry="0.0" stroke="rgb(64,64,64)" stroke-width="0.25mm" width="50.0" x="58.0" y="140.0" /><defs><linearGradient id="ffe85abd-b32a-47dc-a27a-08eab78d736d" x1="0%" x2="0%" y1="0%" y2="100%"><stop offset="0" stop-color="rgb(64, 64, 64)" stop-opacity="1" /><stop offset="0.3" stop-color="rgb(191, 191, 191)" stop-opacity="1" /><stop offset="0.7" stop-color="rgb(191, 191, 191)" stop-opacity="1" /><stop offset="1" stop-color="rgb(64, 64, 64)" stop-opacity="1" /></linearGradient></defs><rect fill="url(#93984667-fdab-4e04-8fce-3bc42ed07a9f)" height="20.0" rx="0.0" ry="0.0" stroke="rgb(64,64,64)" stroke-width="0.25mm" width="50.0" x="208.0" y="140.0" /><defs><linearGradient id="93984667-fdab-4e04-8fce-3bc42ed07a9f" x1="0%" x2="0%" y1="0%" y2="100%"><stop offset="0" stop-color="rgb(64, 64, 64)" stop-opacity="1" /><stop offset="0.3" stop-color="rgb(191, 191, 191)" stop-opacity="1" /><stop offset="0.7" stop-color="rgb(191, 191, 191)" stop-opacity="1" /><stop offset="1" stop-color="rgb(64, 64, 64)" stop-opacity="1" /></linearGradient></defs><rect fill="rgb(153,153,153)" height="4.0" rx="0.0" ry="0.0" stroke="rgb(0,0,0)" stroke-width="0.25mm" width="30.0" x="108.0" y="167.0" /><defs /><rect fill="rgb(204,204,204)" height="6.0" rx="0.0" ry="0.0" stroke="rgb(0,0,0)" stroke-width="0.25mm" width="30.0" x="108.0" y="155.0" /><defs /><rect fill="rgb(204,204,204)" height="4.0" rx="0.0" ry="0.0" stroke="rgb(0,0,0)" stroke-width="0.25mm" width="30.0" x="108.0" y="129.0" /><defs /><rect fill="rgb(255,255,255)" height="6.0" rx="0.0" ry="0.0" stroke="rgb(0,0,0)" stroke-width="0.25mm" width="30.0" x="108.0" y="139.0" /><defs /><rect fill="url(#c1c0c36e-6e77-41fa-93b6-812d7694d9ed)" height="20.0" rx="0.0" ry="0.0" stroke="rgb(64,64,64)" stroke-width="0.25mm" width="40.0" x="138.0" y="80.0" /><defs><linearGradient id="c1c0c36e-6e77-41fa-93b6-812d7694d9ed" x1="0%" x2="0%" y1="0%" y2="100%"><stop offset="0" stop-color="rgb(64, 64, 64)" stop-opacity="1" /><stop offset="0.3" stop-color="rgb(191, 191, 191)" stop-opacity="1" /><stop offset="0.7" stop-color="rgb(191, 191, 191)" stop-opacity="1" /><stop offset="1" stop-color="rgb(64, 64, 64)" stop-opacity="1" /></linearGradient></defs><rect fill="rgb(153,153,153)" height="4.0" rx="0.0" ry="0.0" stroke="rgb(0,0,0)" stroke-width="0.25mm" width="30.0" x="108.0" y="50.0" /><defs /><rect fill="rgb(204,204,204)" height="6.0" rx="0.0" ry="0.0" stroke="rgb(0,0,0)" stroke-width="0.25mm" width="30.0" x="108.0" y="60.0" /><defs /><rect fill="rgb(204,204,204)" height="8.0" rx="0.0" ry="0.0" stroke="rgb(0,0,0)" stroke-width="0.25mm" width="30.0" x="108.0" y="96.0" /><defs /><rect fill="rgb(102,102,102)" height="4.0" rx="0.0" ry="0.0" stroke="rgb(0,0,0)" stroke-width="0.25mm" width="30.0" x="108.0" y="126.0" /><defs /><rect fill="rgb(153,153,153)" height="6.0" rx="0.0" ry="0.0" stroke="rgb(0,0,0)" stroke-width="0.25mm" width="30.0" x="108.0" y="114.0" /><defs /><rect fill="rgb(255,255,255)" height="8.0" rx="0.0" ry="0.0" stroke="rgb(0,0,0)" stroke-width="0.25mm" width="30.0" x="108.0" y="76.0" /><defs /><rect fill="url(#462233fd-49ba-4628-9751-49ac20ecd22b)" height="42.0" rx="0.0" ry="0.0" stroke="rgb(0,0,0)" stroke-width="0.25mm" width="30.0" x="178.0" y="69.0" /><defs><linearGradient id="462233fd-49ba-4628-9751-49ac20ecd22b" x1="0%" x2="0%" y1="0%" y2="100%"><stop offset="0" stop-color="rgb(0, 0, 0)" stop-opacity="1" /><stop offset="0.3" stop-color="rgb(255, 255, 255)" stop-opacity="1" /><stop offset="0.7" stop-color="rgb(255, 255, 255)" stop-opacity="1" /><stop offset="1" stop-color="rgb(0, 0, 0)" stop-opacity="1" /></linearGradient></defs><rect fill="rgb(153,153,153)" height="4.0" rx="0.0" ry="0.0" stroke="rgb(0,0,0)" stroke-width="0.25mm" width="30.0" x="178.0" y="107.0" /><defs /><rect fill="rgb(204,204,204)" height="6.0" rx="0.0" ry="0.0" stroke="rgb(0,0,0)" stroke-width="0.25mm" width="30.0" x="178.0" y="95.0" /><defs /><rect fill="rgb(204,204,204)" height="4.0" rx="0.0" ry="0.0" stroke="rgb(0,0,0)" stroke-width="0.25mm" width="30.0" x="178.0" y="69.0" /><defs /><rect fill="rgb(255,255,255)" height="6.0" rx="0.0" ry="0.0" stroke="rgb(0,0,0)" stroke-width="0.25mm" width="30.0" x="178.0" y="79.0" /><defs /><rect fill="url(#2bec3adc-6bea-4732-8ce1-e1b9ab1c53c9)" height="80.0" rx="0.0" ry="0.0" stroke="rgb(0,0,0)" stroke-width="0.25mm" width="30.0" x="178.0" y="110.0" /><defs><linearGradient id="2bec3adc-6bea-4732-8ce1-e1b9ab1c53c9" x1="0%" x2="0%" y1="0%" y2="100%"><stop offset="0" stop-color="rgb(0, 0, 0)" stop-opacity="1" /><stop offset="0.3" stop-color="rgb(255, 255, 255)" stop-opacity="1" /><stop offset="0.7" stop-color="rgb(255, 255, 255)" stop-opacity="1" /><stop offset="1" stop-color="rgb(0, 0, 0)" stop-opacity="1" /></linearGradient></defs><rect fill="rgb(153,153,153)" height="4.0" rx="0.0" ry="0.0" stroke="rgb(0,0,0)" stroke-width="0.25mm" width="30.0" x="178.0" y="110.0" /><defs /><rect fill="rgb(204,204,204)" height="6.0" rx="0.0" ry="0.0" stroke="rgb(0,0,0)" stroke-width="0.25mm" width="30.0" x="178.0" y="120.0" /><defs /><rect fill="rgb(204,204,204)" height="8.0" rx="0.0" ry="0.0" stroke="rgb(0,0,0)" stroke-width="0.25mm" width="30.0" x="178.0" y="156.0" /><defs /><rect fill="rgb(102,102,102)" height="4.0" rx="0.0" ry="0.0" stroke="rgb(0,0,0)" stroke-width="0.25mm" width="30.0" x="178.0" y="186.0" /><defs /><rect fill="rgb(153,153,153)" height="6.0" rx="0.0" ry="0.0" stroke="rgb(0,0,0)" stroke-width="0.25mm" width="30.0" x="178.0" y="174.0" /><defs /><rect fill="rgb(255,255,255)" height="8.0" rx="0.0" ry="0.0" stroke="rgb(0,0,0)" stroke-width="0.25mm" width="30.0" x="178.0" y="136.0" /><defs /><rect fill="none" fill-opacity="0" height="121.0" rx="0.0" ry="0.0" stroke="rgb(0,0,0)" stroke-width="0.25mm" width="30.0" x="108.0" y="50.0" /><defs /><rect fill="none" fill-opacity="0" height="121.0" rx="0.0" ry="0.0" stroke="rgb(0,0,0)" stroke-width="0.25mm" width="30.0" x="178.0" y="69.0" /><defs /><polyline fill="none" fill-opacity="0" points="108.0,270.0 128.0,250.0" stroke="rgb(0,0,0)" stroke-width="0.25mm" /><defs /><polyline fill="none" fill-opacity="0" points="128.0,270.0 148.0,250.0" stroke="rgb(0,0,0)" stroke-width="0.25mm" /><defs /><polyline fill="none" fill-opacity="0" points="148.0,270.0 168.0,250.0" stroke="rgb(0,0,0)" stroke-width="0.25mm" /><defs /><polyline fill="none" fill-opacity="0" points="168.0,270.0 188.0,250.0" stroke="rgb(0,0,0)" stroke-width="0.25mm" /><defs /><polyline fill="none" fill-opacity="0" points="128.0,250.0 188.0,250.0" stroke="rgb(0,0,0)" stroke-width="0.25mm" /><defs /><text alignment-baseline="middle" fill="rgb(0,0,255)" font-family="Verdana" font-size="18" text-anchor="middle" x="155.0" y="25.0">IdealGear<tspan class="bbox" display="none">5.0 5.0 305.0 45.0</tspan><tspan class="data-bind" display="none">%name</tspan></text><defs /><text alignment-baseline="middle" fill="rgb(0,0,0)" font-family="Verdana" font-size="18" text-anchor="middle" x="162.0" y="214.0">ratio=ratio<tspan class="bbox" display="none">12.0 199.0 312.0 229.0</tspan><tspan class="data-bind" display="none">ratio=%ratio</tspan></text><defs /><g id="flange_a"><ellipse cx="58.0" cy="150.0" fill="rgb(95,95,95)" rx="10.0" ry="10.0" stroke="rgb(0,0,0)" stroke-width="0.25mm" /><defs /><g display="none" id="info"><text id="name">flange_a</text><text id="type">Modelica.Mechanics.Rotational.Interfaces.Flange_a</text><text id="classDesc">1-dim. rotational flange of a shaft (filled square icon)</text><text id="desc">Flange of left shaft</text></g></g><g id="flange_b"><ellipse cx="258.198019802" cy="150.0" fill="rgb(255,255,255)" rx="9.90099009901" ry="10.0" stroke="rgb(0,0,0)" stroke-width="0.25mm" /><defs /><g display="none" id="info"><text id="name">flange_b</text><text id="type">Modelica.Mechanics.Rotational.Interfaces.Flange_b</text><text id="classDesc">1-dim. rotational flange of a shaft (non-filled square icon)</text><text id="desc">Flange of right shaft</text></g></g><g id="support"><ellipse cx="158.0" cy="250.0" fill="rgb(95,95,95)" rx="6.66666666667" ry="6.66666666667" stroke="rgb(0,0,0)" stroke-width="0.25mm" /><defs /><rect fill="rgb(192,192,192)" height="20.0" rx="0.0" ry="0.0" stroke="rgb(192,192,192)" stroke-width="0.25mm" width="20.0" x="148.0" y="240.0" /><defs /><ellipse cx="158.0" cy="250.0" fill="rgb(95,95,95)" rx="6.66666666667" ry="6.66666666667" stroke="rgb(0,0,0)" stroke-width="0.25mm" /><defs /><g display="none" id="info"><text id="name">support</text><text id="type">Modelica.Mechanics.Rotational.Interfaces.Support</text><text id="classDesc">Support/housing of a 1-dim. rotational shaft</text><text id="desc">Support/housing of component</text></g></g></svg>