<?xml version="1.0" encoding="utf-8" ?>
<svg baseProfile="full" height="210" version="1.1" viewBox="0 0 310.0 210" width="310.0" xmlns="http://www.w3.org/2000/svg" xmlns:ev="http://www.w3.org/2001/xml-events" xmlns:xlink="http://www.w3.org/1999/xlink"><defs /><desc>Modelica.Electrical.Analog.Basic.SaturatingInductor</desc><path d="M 93.0 105.0 C 93.0 102.0 93.0 99.0 97.5 94.5 97.5 94.5 102.0 90.0 105.0 90.0 105.0 90.0 108.0 90.0 111.0 90.0 111.0 90.0 114.0 90.0 118.5 94.5 118.5 94.5 123.0 99.0 123.0 102.0 123.0 102.0 123.0 105.0 123.0 105.0" fill="none" fill-opacity="0" stroke="rgb(0,0,255)" stroke-width="0.25mm" /><defs /><path d="M 123.0 105.0 C 123.0 102.0 123.0 99.0 127.5 94.5 127.5 94.5 132.0 90.0 135.0 90.0 135.0 90.0 138.0 90.0 141.0 90.0 141.0 90.0 144.0 90.0 148.5 94.5 148.5 94.5 153.0 99.0 153.0 102.0 153.0 102.0 153.0 105.0 153.0 105.0" fill="none" fill-opacity="0" stroke="rgb(0,0,255)" stroke-width="0.25mm" /><defs /><path d="M 153.0 105.0 C 153.0 102.0 153.0 99.0 157.5 94.5 157.5 94.5 162.0 90.0 165.0 90.0 165.0 90.0 168.0 90.0 171.0 90.0 171.0 90.0 174.0 90.0 178.5 94.5 178.5 94.5 183.0 99.0 183.0 102.0 183.0 102.0 183.0 105.0 183.0 105.0" fill="none" fill-opacity="0" stroke="rgb(0,0,255)" stroke-width="0.25mm" /><defs /><path d="M 183.0 105.0 C 183.0 102.0 183.0 99.0 187.5 94.5 187.5 94.5 192.0 90.0 195.0 90.0 195.0 90.0 198.0 90.0 201.0 90.0 201.0 90.0 204.0 90.0 208.5 94.5 208.5 94.5 213.0 99.0 213.0 102.0 213.0 102.0 213.0 105.0 213.0 105.0" fill="none" fill-opacity="0" stroke="rgb(0,0,255)" stroke-width="0.25mm" /><defs /><polyline fill="none" fill-opacity="0" points="213.0,105.0 243.0,105.0" stroke="rgb(0,0,255)" stroke-width="0.25mm" /><defs /><polyline fill="none" fill-opacity="0" points="63.0,105.0 93.0,105.0" stroke="rgb(0,0,255)" stroke-width="0.25mm" /><defs /><rect fill="url(#bbdc6e52-bfd8-46e5-9179-96870b50aacf)" height="10.0" rx="0.0" ry="0.0" stroke="rgb(0,0,0)" stroke-width="0.25mm" width="120.0" x="93.0" y="115.0" /><defs><radialGradient cx="50%" cy="50%" fx="50%" fy="50%" id="bbdc6e52-bfd8-46e5-9179-96870b50aacf" r="0.9"><stop offset="0" stop-color="rgb(0, 0, 255)" stop-opacity="1" /><stop offset="1" stop-color="rgb(0, 0, 0)" stop-opacity="1" /></radialGradient></defs><text alignment-baseline="middle" fill="rgb(0,0,0)" font-family="Verdana" font-size="18" text-anchor="middle" x="155.0" y="170.0">Lnom=Lnom<tspan class="bbox" display="none">5.0 155.0 305.0 185.0</tspan><tspan class="data-bind" display="none">Lnom=%Lnom</tspan></text><defs /><text alignment-baseline="middle" fill="rgb(0,0,255)" font-family="Verdana" font-size="18" text-anchor="middle" x="155.0" y="34.0">SaturatingInductor<tspan class="bbox" display="none">5.0 14.0 305.0 54.0</tspan><tspan class="data-bind" display="none">%name</tspan></text><defs /><g id="p"><rect fill="rgb(0,0,255)" height="20.0" rx="0.0" ry="0.0" stroke="rgb(0,0,255)" stroke-width="0.25mm" width="20.0" x="43.0" y="95.0" /><defs /><g display="none" id="info"><text id="name">p</text><text id="type">Modelica.Electrical.Analog.Interfaces.PositivePin</text><text id="classDesc">Positive pin of an electric component</text><text id="desc">Positive pin (potential p.v &gt; n.v for positive voltage drop v)</text></g></g><g id="n"><rect fill="rgb(255,255,255)" height="20.0" rx="0.0" ry="0.0" stroke="rgb(0,0,255)" stroke-width="0.25mm" width="20.0" x="243.0" y="95.0" /><defs /><g display="none" id="info"><text id="name">n</text><text id="type">Modelica.Electrical.Analog.Interfaces.NegativePin</text><text id="classDesc">Negative pin of an electric component</text><text id="desc">Negative pin</text></g></g></svg>