<?xml version="1.0" encoding="utf-8" ?>
<svg baseProfile="full" height="238.0" version="1.1" viewBox="0 0 310.0 238.0" width="310.0" xmlns="http://www.w3.org/2000/svg" xmlns:ev="http://www.w3.org/2001/xml-events" xmlns:xlink="http://www.w3.org/1999/xlink"><defs /><desc>Modelica.Electrical.Analog.Basic.VariableInductor</desc><polyline fill="none" fill-opacity="0" points="61.0,133.0 91.0,133.0" stroke="rgb(0,0,255)" stroke-width="0.25mm" /><defs /><polyline fill="none" fill-opacity="0" points="211.0,133.0 241.0,133.0" stroke="rgb(0,0,255)" stroke-width="0.25mm" /><defs /><polyline fill="none" fill-opacity="0" points="151.0,43.0 151.0,125.0" stroke="rgb(0,0,255)" stroke-width="0.25mm" /><defs /><path d="M 91.0 133.0 C 91.0 130.0 91.0 127.0 95.5 122.5 95.5 122.5 100.0 118.0 103.0 118.0 103.0 118.0 106.0 118.0 109.0 118.0 109.0 118.0 112.0 118.0 116.5 122.5 116.5 122.5 121.0 127.0 121.0 130.0 121.0 130.0 121.0 133.0 121.0 133.0" fill="none" fill-opacity="0" stroke="rgb(0,0,255)" stroke-width="0.25mm" /><defs /><path d="M 121.0 133.0 C 121.0 130.0 121.0 127.0 125.5 122.5 125.5 122.5 130.0 118.0 133.0 118.0 133.0 118.0 136.0 118.0 139.0 118.0 139.0 118.0 142.0 118.0 146.5 122.5 146.5 122.5 151.0 127.0 151.0 130.0 151.0 130.0 151.0 133.0 151.0 133.0" fill="none" fill-opacity="0" stroke="rgb(0,0,255)" stroke-width="0.25mm" /><defs /><path d="M 151.0 133.0 C 151.0 130.0 151.0 127.0 155.5 122.5 155.5 122.5 160.0 118.0 163.0 118.0 163.0 118.0 166.0 118.0 169.0 118.0 169.0 118.0 172.0 118.0 176.5 122.5 176.5 122.5 181.0 127.0 181.0 130.0 181.0 130.0 181.0 133.0 181.0 133.0" fill="none" fill-opacity="0" stroke="rgb(0,0,255)" stroke-width="0.25mm" /><defs /><path d="M 181.0 133.0 C 181.0 130.0 181.0 127.0 185.5 122.5 185.5 122.5 190.0 118.0 193.0 118.0 193.0 118.0 196.0 118.0 199.0 118.0 199.0 118.0 202.0 118.0 206.5 122.5 206.5 122.5 211.0 127.0 211.0 130.0 211.0 130.0 211.0 133.0 211.0 133.0" fill="none" fill-opacity="0" stroke="rgb(0,0,255)" stroke-width="0.25mm" /><defs /><text alignment-baseline="middle" fill="rgb(0,0,255)" font-family="Verdana" font-size="18" text-anchor="middle" x="155.0" y="200.0">VariableInductor<tspan class="bbox" display="none">5.0 180.0 305.0 220.0</tspan><tspan class="data-bind" display="none">%name</tspan></text><defs /><g id="p"><rect fill="rgb(0,0,255)" fill-opacity="1" height="20.0" rx="0.0" ry="0.0" stroke="rgb(0,0,255)" stroke-width="0.25mm" width="20.0" x="41.0" y="123.0" /><defs /><g display="none" id="info"><text id="name">p</text><text id="type">Modelica.Electrical.Analog.Interfaces.PositivePin</text><text id="classDesc">Positive pin of an electric component</text><text id="desc">Positive pin (potential p.v &gt; n.v for positive voltage drop v)</text></g></g><g id="n"><rect fill="rgb(255,255,255)" fill-opacity="1" height="20.0" rx="0.0" ry="0.0" stroke="rgb(0,0,255)" stroke-width="0.25mm" width="20.0" x="241.0" y="123.0" /><defs /><g display="none" id="info"><text id="name">n</text><text id="type">Modelica.Electrical.Analog.Interfaces.NegativePin</text><text id="classDesc">Negative pin of an electric component</text><text id="desc">Negative pin</text></g></g><g id="L"><polygon fill="rgb(0,0,127)" fill-opacity="1" points="171.002779415,5.00277980084 150.997220392,44.9999998068 131.002779801,4.99722058547" stroke="rgb(0,0,127)" stroke-width="0.25mm" /><defs /><g display="none" id="info"><text id="name">L</text><text id="type">Modelica.Blocks.Interfaces.RealInput</text><text id="classDesc">'input Real' as connector</text><text id="desc" /></g></g></svg>