<?xml version="1.0" encoding="utf-8" ?>
<svg baseProfile="full" height="255.0" version="1.1" viewBox="0 0 310.0 255.0" width="310.0" xmlns="http://www.w3.org/2000/svg" xmlns:ev="http://www.w3.org/2001/xml-events" xmlns:xlink="http://www.w3.org/1999/xlink"><defs /><desc>Modelica.Thermal.HeatTransfer.Components.BodyRadiation</desc><rect fill="url(#44b0c24b-2a99-412e-a376-31001453dc4e)" height="160.0" rx="0.0" ry="0.0" stroke="rgb(0,0,0)" stroke-width="0.25mm" width="40.0" x="205.0" y="50.0" /><defs><pattern height="7" id="44b0c24b-2a99-412e-a376-31001453dc4e" patternUnits="userSpaceOnUse" width="7" x="0" y="0"><rect fill="rgb(192,192,192)" height="7" width="7" x="0" y="0" /><path d="M7,0 l-7,7" stroke="rgb(0,0,0)" stroke-width="1" /><path d="M1,-1 l-7,7" stroke="rgb(0,0,0)" stroke-width="1" /><path d="M8,6 l-7,7" stroke="rgb(0,0,0)" stroke-width="1" /></pattern></defs><rect fill="url(#b90f3e96-7a92-4060-af30-2aba0dca3d0d)" height="160.0" rx="0.0" ry="0.0" stroke="rgb(0,0,0)" stroke-width="0.25mm" width="40.0" x="65.0" y="50.0" /><defs><pattern height="7" id="b90f3e96-7a92-4060-af30-2aba0dca3d0d" patternUnits="userSpaceOnUse" width="7" x="0" y="0"><rect fill="rgb(192,192,192)" height="7" width="7" x="0" y="0" /><path d="M7,0 l-7,7" stroke="rgb(0,0,0)" stroke-width="1" /><path d="M1,-1 l-7,7" stroke="rgb(0,0,0)" stroke-width="1" /><path d="M8,6 l-7,7" stroke="rgb(0,0,0)" stroke-width="1" /></pattern></defs><polyline fill="none" fill-opacity="0" points="119.0,120.0 191.0,120.0" stroke="rgb(191,0,0)" stroke-width="0.25mm" /><defs /><polyline fill="none" fill-opacity="0" points="119.0,120.0 129.0,114.0" stroke="rgb(191,0,0)" stroke-width="0.25mm" /><defs /><polyline fill="none" fill-opacity="0" points="119.0,120.0 129.0,126.0" stroke="rgb(191,0,0)" stroke-width="0.25mm" /><defs /><polyline fill="none" fill-opacity="0" points="119.0,140.0 191.0,140.0" stroke="rgb(191,0,0)" stroke-width="0.25mm" /><defs /><polyline fill="none" fill-opacity="0" points="181.0,146.0 191.0,140.0" stroke="rgb(191,0,0)" stroke-width="0.25mm" /><defs /><polyline fill="none" fill-opacity="0" points="181.0,134.0 191.0,140.0" stroke="rgb(191,0,0)" stroke-width="0.25mm" /><defs /><polyline fill="none" fill-opacity="0" points="119.0,160.0 191.0,160.0" stroke="rgb(191,0,0)" stroke-width="0.25mm" /><defs /><polyline fill="none" fill-opacity="0" points="119.0,160.0 129.0,154.0" stroke="rgb(191,0,0)" stroke-width="0.25mm" /><defs /><polyline fill="none" fill-opacity="0" points="119.0,160.0 129.0,166.0" stroke="rgb(191,0,0)" stroke-width="0.25mm" /><defs /><polyline fill="none" fill-opacity="0" points="119.0,100.0 191.0,100.0" stroke="rgb(191,0,0)" stroke-width="0.25mm" /><defs /><polyline fill="none" fill-opacity="0" points="181.0,106.0 191.0,100.0" stroke="rgb(191,0,0)" stroke-width="0.25mm" /><defs /><polyline fill="none" fill-opacity="0" points="181.0,94.0 191.0,100.0" stroke="rgb(191,0,0)" stroke-width="0.25mm" /><defs /><text alignment-baseline="middle" fill="rgb(0,0,255)" font-family="Verdana" font-size="18" text-anchor="middle" x="155.0" y="25.0">BodyRadiation<tspan class="bbox" display="none">5.0 5.0 305.0 45.0</tspan><tspan class="data-bind" display="none">%name</tspan></text><defs /><text alignment-baseline="middle" fill="rgb(0,0,0)" font-family="Verdana" font-size="18" text-anchor="middle" x="155.0" y="235.0">Gr=Gr<tspan class="bbox" display="none">5.0 220.0 305.0 250.0</tspan><tspan class="data-bind" display="none">Gr=%Gr</tspan></text><defs /><rect fill="rgb(191,0,0)" fill-opacity="1" height="160.0" rx="0.0" ry="0.0" stroke="rgb(191,0,0)" stroke-width="0.25mm" width="6.0" x="105.0" y="50.0" /><defs /><rect fill="rgb(191,0,0)" fill-opacity="1" height="160.0" rx="0.0" ry="0.0" stroke="rgb(191,0,0)" stroke-width="0.25mm" width="5.0" x="200.0" y="50.0" /><defs /><g id="port_a"><rect fill="rgb(191,0,0)" fill-opacity="1" height="20.0" rx="0.0" ry="0.0" stroke="rgb(191,0,0)" stroke-width="0.25mm" width="20.0" x="45.0" y="120.0" /><defs /><g display="none" id="info"><text id="name">port_a</text><text id="type">Modelica.Thermal.HeatTransfer.Interfaces.HeatPort_a</text><text id="classDesc">Thermal port for 1-dim. heat transfer (filled rectangular icon)</text><text id="desc" /></g></g><g id="port_b"><rect fill="rgb(255,255,255)" fill-opacity="1" height="20.0" rx="0.0" ry="0.0" stroke="rgb(191,0,0)" stroke-width="0.25mm" width="20.0" x="245.0" y="120.0" /><defs /><g display="none" id="info"><text id="name">port_b</text><text id="type">Modelica.Thermal.HeatTransfer.Interfaces.HeatPort_b</text><text id="classDesc">Thermal port for 1-dim. heat transfer (unfilled rectangular icon)</text><text id="desc" /></g></g></svg>